<svg xmlns="http://www.w3.org/2000/svg" viewBox="0 0 760 460" role="img" aria-labelledby="title desc">
  <title id="title">PatosAgro</title>
  <desc id="desc">Pato em traço preto carregando uma espiga de trigo</desc>
  <g fill="none" stroke="#000" stroke-linecap="round" stroke-linejoin="round">
    <path stroke-width="17" d="M102 329c52 21 92 7 137-19 56-33 112-44 170-26 40 13 69 7 84-27 12-27 2-60 7-95 7-51 37-85 79-83 41 3 65 37 60 71-3 23-18 41-39 51 36 5 62 29 91 31 21 2 35-5 42-1-10 20-43 22-68 13-27-10-46-28-66-31 13 35 31 72 35 111 7 64-25 106-87 121-84 20-197 4-285-52-42-27-79-58-110-64Z"/>
    <path stroke-width="15" d="M242 310c49 30 108 35 165 8 31-15 58-20 86-14-21 75-128 104-209 55-23-14-36-31-42-49Z"/>
    <path stroke-width="14" d="M239 308c-25-75-33-147-6-213"/>
    <path stroke-width="12" d="M236 302c-8-92 17-169 77-231 45-47 102-70 173-82"/>
    <path stroke-width="10" d="M283 214c37-75 94-128 175-160"/>
    <g stroke-width="10">
      <path d="M298 192c-31-9-43-30-37-61 31 8 44 29 37 61Z"/>
      <path d="M329 151c-29-13-37-36-27-65 29 12 38 34 27 65Z"/>
      <path d="M367 116c-26-17-31-41-16-68 27 16 32 39 16 68Z"/>
      <path d="M407 88c-22-20-23-44-4-67 23 19 25 42 4 67Z"/>
      <path d="M440 72c12-28 34-40 64-34-11 29-32 41-64 34Z"/>
      <path d="M393 110c17 27 42 35 72 23-16-27-40-36-72-23Z"/>
      <path d="M355 139c20 25 46 29 73 14-19-25-44-30-73-14Z"/>
      <path d="M323 177c23 22 49 23 74 5-22-23-47-25-74-5Z"/>
      <path d="M296 218c26 18 52 15 73-7-25-19-50-17-73 7Z"/>
    </g>
  </g>
</svg>
